<!DOCTYPE svg PUBLIC "-//W3C//DTD SVG 1.1//EN" "http://www.w3.org/Graphics/SVG/1.1/DTD/svg11.dtd">
<!-- Uploaded to: SVG Repo, www.svgrepo.com, Transformed by: SVG Repo Mixer Tools -->
<svg version="1.1" id="Icons" xmlns="http://www.w3.org/2000/svg" xmlns:xlink="http://www.w3.org/1999/xlink" viewBox="0 0 32 32" xml:space="preserve" width="800px" height="800px" fill="#000000">
<g id="SVGRepo_bgCarrier" stroke-width="0"/>
<g id="SVGRepo_tracerCarrier" stroke-linecap="round" stroke-linejoin="round"/>
<g id="SVGRepo_iconCarrier"> <style type="text/css"> .st0{fill:none;stroke:#ccaa00;stroke-width:2;stroke-linecap:round;stroke-linejoin:round;stroke-miterlimit:10;} </style> <line class="st0" x1="7" y1="17" x2="25" y2="17"/> <path class="st0" d="M8,17L8,17c1.9,2.6,3,5.8,3,9v4"/> <path class="st0" d="M24,17L24,17c-1.9,2.6-3,5.8-3,9v4"/> <path class="st0" d="M10.7,23H5c-2.2,0-4-1.8-4-4V5c0-2.2,1.8-4,4-4h22c2.2,0,4,1.8,4,4v14c0,2.2-1.8,4-4,4h-5.7"/> <rect x="10" y="9" class="st0" width="12" height="8"/> <polyline class="st0" points="10.1,20.9 13,18 16,21 13,24 10.2,21.2 "/> <polyline class="st0" points="21.8,21.2 19,24 16,21 19,18 21.9,20.9 "/> <polyline class="st0" points="11,26 13,24 16,27 13,30 11,28 "/> <polyline class="st0" points="21,28 19,30 16,27 19,24 21,26 "/> </g>
</svg>