<!DOCTYPE svg PUBLIC "-//W3C//DTD SVG 1.1//EN" "http://www.w3.org/Graphics/SVG/1.1/DTD/svg11.dtd">
<!-- Uploaded to: SVG Repo, www.svgrepo.com, Transformed by: SVG Repo Mixer Tools -->
<svg fill="#dfbb07" height="800px" width="800px" version="1.1" id="Layer_1" xmlns="http://www.w3.org/2000/svg" xmlns:xlink="http://www.w3.org/1999/xlink" viewBox="0 0 512 512" xml:space="preserve">
<g id="SVGRepo_bgCarrier" stroke-width="0"/>
<g id="SVGRepo_tracerCarrier" stroke-linecap="round" stroke-linejoin="round"/>
<g id="SVGRepo_iconCarrier"> <g> <g> <path d="M496.576,56.827h-73.04h-4.333H183.793V52.37c0-8.519-6.905-15.424-15.424-15.424s-15.424,6.905-15.424,15.424v4.458 H41.746c-8.519,0-15.424,6.905-15.424,15.424v195.014c0,44.055,17.552,83.891,49.424,112.166 c5.654,5.016,11.693,9.609,18.058,13.772H52.83H15.424C6.905,393.203,0,400.108,0,408.627c0,8.519,6.905,15.424,15.424,15.424 h30.772c31.912,32.49,75.798,51.004,121.511,51.004h129.866c45.715,0,89.601-18.513,121.511-51.004h30.772 c8.519,0,15.424-6.905,15.424-15.424c0-8.519-6.905-15.424-15.424-15.424h-37.406h-40.975c6.365-4.163,12.404-8.756,18.058-13.772 c29.103-25.82,46.259-61.278,49.022-100.786C480.489,268.133,512,230.479,512,188.74V72.251 C512,63.732,505.095,56.827,496.576,56.827z M297.575,444.205H167.709c-25.653,0-50.606-7.115-72.181-20.156h274.23 C348.181,437.09,323.228,444.205,297.575,444.205z M408.112,267.265c0,71.428-57.031,123.269-135.609,123.269H192.78 c-78.577,0-135.61-51.843-135.61-123.269V87.675h95.775v62.675c0,8.519,6.905,15.424,15.424,15.424s15.424-6.905,15.424-15.424 V87.675h224.319V267.265z M481.152,188.739c0,25.158-17.626,48.147-42.192,57.528V87.675h42.192V188.739z"/> </g> </g> <g> <g> <path d="M183.492,193.61c-0.201-0.987-0.494-1.959-0.879-2.884c-0.386-0.925-0.864-1.835-1.419-2.668 c-0.571-0.848-1.203-1.635-1.913-2.344c-0.725-0.709-1.512-1.357-2.344-1.913c-0.848-0.555-1.743-1.033-2.668-1.419 c-0.925-0.386-1.897-0.679-2.884-0.879c-1.99-0.401-4.041-0.401-6.031,0c-0.987,0.201-1.959,0.494-2.884,0.879 c-0.925,0.386-1.82,0.864-2.668,1.419c-0.833,0.555-1.635,1.203-2.344,1.913c-0.71,0.71-1.357,1.496-1.913,2.344 c-0.555,0.833-1.033,1.743-1.419,2.668c-0.386,0.925-0.679,1.897-0.879,2.884c-0.201,1.003-0.308,2.005-0.308,3.008 c0,1.018,0.108,2.021,0.308,3.023c0.201,0.987,0.494,1.943,0.879,2.884c0.386,0.925,0.864,1.82,1.419,2.653 c0.555,0.848,1.203,1.635,1.913,2.344c0.709,0.725,1.512,1.357,2.344,1.928c0.848,0.555,1.743,1.033,2.668,1.419 c0.925,0.386,1.897,0.679,2.884,0.879c1.003,0.201,2.005,0.293,3.023,0.293c1.003,0,2.005-0.093,3.008-0.293 c0.987-0.201,1.959-0.494,2.884-0.879c0.925-0.386,1.82-0.864,2.668-1.419c0.833-0.571,1.62-1.203,2.344-1.928 c0.709-0.71,1.342-1.496,1.913-2.344c0.555-0.833,1.033-1.727,1.419-2.653c0.386-0.941,0.679-1.897,0.879-2.884 c0.201-1.003,0.293-2.005,0.293-3.023C183.785,195.615,183.693,194.612,183.492,193.61z"/> </g> </g> <g> <g> <path d="M226.406,267.2l-19.912-33.152c-2.789-4.643-7.808-7.482-13.223-7.482h-49.805c-5.415,0-10.434,2.84-13.223,7.482 L110.33,267.2c-1.441,2.398-2.201,5.144-2.201,7.942v58.199c0,8.519,6.905,15.424,15.424,15.424h89.63 c8.519,0,15.424-6.905,15.424-15.424v-58.199C228.607,272.344,227.845,269.599,226.406,267.2z M197.759,317.917h-58.782v-38.5 l13.215-22.004h32.352l13.215,22.004V317.917z"/> </g> </g> </g>
</svg>